<?xml version="1.0" encoding="utf-8"?>
<svg xmlns="http://www.w3.org/2000/svg">
<symbol id='add' fill="none"  viewBox="0 0 292 292"><g clip-path="url(#a)"><path d="M125.167 166.833H21C15.0973 166.833 10.1528 164.833 6.1667 160.833C2.18059 156.833 0.180587 151.889 0.166698 146C0.152809 140.111 2.15281 135.167 6.1667 131.167C10.1806 127.167 15.125 125.167 21 125.167H125.167V20.9999C125.167 15.0971 127.167 10.1527 131.167 6.16658C135.167 2.18047 140.111 0.180465 146 0.166576C151.889 0.152687 156.84 2.15269 160.854 6.16658C164.868 10.1805 166.861 15.1249 166.833 20.9999V125.167H271C276.903 125.167 281.854 127.167 285.854 131.167C289.854 135.167 291.847 140.111 291.833 146C291.819 151.889 289.819 156.84 285.833 160.854C281.847 164.868 276.903 166.861 271 166.833H166.833V271C166.833 276.903 164.833 281.854 160.833 285.854C156.833 289.854 151.889 291.847 146 291.833C140.111 291.819 135.167 289.819 131.167 285.833C127.167 281.847 125.167 276.903 125.167 271V166.833Z" fill="currentColor"/></g><defs><clipPath id="a"><rect width="292" height="292" fill="white"/></clipPath></defs></symbol>
<symbol id='arrow-small' fill="none"  viewBox="0 0 227 196"><path d="M224.576 15.6097C225.376 14.2587 225.804 12.7198 225.818 11.1492C225.832 9.57866 225.43 8.03246 224.654 6.66769C223.878 5.30291 222.755 4.16818 221.399 3.37876C220.044 2.58935 218.504 2.17337 216.935 2.1731L11.2045 2.1731C9.63635 2.17337 8.09626 2.58935 6.74061 3.37876C5.38496 4.16818 4.26206 5.30291 3.486 6.66769C2.70994 8.03246 2.30835 9.57866 2.32205 11.1492C2.33574 12.7198 2.76424 14.2587 3.56398 15.6097L106.429 189.47C107.216 190.797 108.334 191.897 109.674 192.661C111.013 193.425 112.528 193.827 114.07 193.827C115.612 193.827 117.127 193.425 118.466 192.661C119.806 191.897 120.924 190.797 121.71 189.47L224.576 15.6097Z" fill="currentColor" stroke="currentColor" stroke-width="1.5" stroke-linecap="round" stroke-linejoin="round"/></symbol>
<symbol id='arrow' fill="none"  viewBox="0 0 227 227"><path d="M117.907 37.9038C120.407 35.4042 123.798 34 127.333 34C130.869 34 134.26 35.4042 136.76 37.9038L196.76 97.9038C199.26 100.404 200.664 103.795 200.664 107.33C200.664 110.866 199.26 114.257 196.76 116.757L136.76 176.757C134.245 179.186 130.877 180.53 127.381 180.499C123.885 180.469 120.541 179.067 118.069 176.595C115.597 174.123 114.195 170.778 114.164 167.283C114.134 163.787 115.478 160.419 117.907 157.904L154 120.664H27.3333C23.7971 120.664 20.4057 119.259 17.9052 116.759C15.4048 114.258 14 110.867 14 107.33C14 103.794 15.4048 100.403 17.9052 97.9024C20.4057 95.4019 23.7971 93.9972 27.3333 93.9972H154L117.907 56.7572C115.407 54.2568 114.003 50.866 114.003 47.3305C114.003 43.795 115.407 40.4042 117.907 37.9038Z" fill="currentColor"/></symbol>
<symbol id='award' fill="none"  viewBox="0 0 227 227"><path d="M184.4 132.256L202.995 164.471C203.762 165.797 204.196 167.29 204.259 168.82C204.322 170.351 204.012 171.874 203.356 173.259C202.7 174.643 201.718 175.848 200.493 176.769C199.269 177.69 197.839 178.299 196.327 178.545L195.258 178.649L194.199 178.64L166.457 176.842L154.133 201.775C153.466 203.126 152.485 204.299 151.272 205.194C150.059 206.09 148.65 206.683 147.162 206.923C145.674 207.164 144.15 207.046 142.717 206.578C141.284 206.11 139.983 205.306 138.924 204.234L138.148 203.345L137.467 202.304L118.853 170.08C131.956 169.256 144.69 165.414 156.061 158.852C167.432 152.291 177.131 143.188 184.4 132.256ZM108.109 170.08L89.5137 202.314C88.7617 203.621 87.7078 204.73 86.44 205.547C85.1723 206.365 83.7274 206.867 82.226 207.013C80.7245 207.158 79.2101 206.942 77.8091 206.383C76.4081 205.824 75.1612 204.938 74.1723 203.799L73.4535 202.853L72.8481 201.775L60.5145 176.852L32.7921 178.649C31.2644 178.749 29.7351 178.478 28.3357 177.857C26.9362 177.236 25.7084 176.285 24.7577 175.085C23.807 173.884 23.1617 172.472 22.8775 170.967C22.5932 169.463 22.6784 167.912 23.1257 166.448L23.504 165.436L23.9769 164.49L42.5909 132.246C49.855 143.178 59.5487 152.282 70.9143 158.847C82.28 165.412 95.0097 169.25 108.109 170.08ZM113.5 18.9167L115.77 18.9545C132.927 19.5431 149.184 26.7724 161.113 39.1175C173.041 51.4626 179.709 67.9583 179.708 85.125L179.68 86.9505L179.614 88.7665L179.444 91.0837L179.198 93.3727L178.971 95.0562C178.347 99.1387 177.344 103.154 175.972 107.049L174.875 109.963L173.428 113.254C168.073 124.661 159.575 134.303 148.932 141.048C138.288 147.793 125.941 151.361 113.34 151.333C100.739 151.306 88.4078 147.683 77.7941 140.891C67.1804 134.099 58.7249 124.419 53.4207 112.989L52.1911 110.18L51.6993 108.922L50.9426 106.87L50.0441 104.089C49.7233 103.012 49.43 101.927 49.1645 100.835L48.597 98.2721L48.1335 95.7089L47.9443 94.3942L47.5755 91.3391L47.3485 87.8868L47.2917 85.125C47.2914 67.9583 53.9588 51.4626 65.8875 39.1175C77.8162 26.7724 94.0735 19.5431 111.23 18.9545L113.5 18.9167Z" fill="currentColor"/></symbol>
<symbol id='bank' fill="none"  viewBox="0 0 227 227"><path d="M76.3408 14.873C100.194 5.32584 126.806 5.32585 150.659 14.873L221.325 43.1572C224.753 44.5291 227 47.8492 227 51.541V53.0048C227 57.1837 223.612 60.5714 219.433 60.5714H217.896C214.566 60.5714 211.885 63.6307 209.443 65.8951C207.827 67.3936 205.916 68.1429 203.709 68.1429H23.2911C21.0842 68.1429 19.1728 67.3936 17.557 65.8951C15.1154 63.6307 12.4338 60.5714 9.10373 60.5714H7.56667C3.38771 60.5714 0 57.1837 0 53.0048V51.541C0 47.8492 2.24727 44.5291 5.67478 43.1572L76.3408 14.873ZM30.2667 90.8476C30.2667 82.4897 37.0421 75.7143 45.4 75.7143C53.7579 75.7143 60.5333 82.4897 60.5333 90.8476V159.005C60.5333 163.184 63.921 166.571 68.1 166.571C72.279 166.571 75.6667 163.184 75.6667 159.005V90.8476C75.6667 82.4897 82.4421 75.7143 90.8 75.7143C99.1579 75.7143 105.933 82.4897 105.933 90.8476V159.005C105.933 163.184 109.321 166.571 113.5 166.571C117.679 166.571 121.067 163.184 121.067 159.005V90.8476C121.067 82.4897 127.842 75.7143 136.2 75.7143C144.558 75.7143 151.333 82.4897 151.333 90.8476V159.005C151.333 163.184 154.721 166.571 158.9 166.571C163.079 166.571 166.467 163.184 166.467 159.005V90.8476C166.467 82.4897 173.242 75.7143 181.6 75.7143C189.958 75.7143 196.733 82.4897 196.733 90.8476V159.596C196.733 163.448 199.856 166.571 203.709 166.571C205.916 166.571 207.827 167.321 209.443 168.819C211.059 170.318 211.867 172.092 211.867 174.143C211.867 178.324 208.477 181.714 204.295 181.714H22.7048C18.5232 181.714 15.1333 178.324 15.1333 174.143C15.1333 172.092 15.9412 170.318 17.557 168.819C19.1728 167.321 21.0842 166.571 23.2911 166.571C27.1436 166.571 30.2667 163.448 30.2667 159.596V90.8476ZM218.842 189.286C221.049 189.286 222.96 190.035 224.576 191.533C226.192 193.032 227 194.807 227 196.857C227 205.22 220.22 212 211.857 212H15.1429C6.77969 212 0 205.22 0 196.857C0 194.807 0.807899 193.032 2.4237 191.533C4.0395 190.035 5.95087 189.286 8.15781 189.286H218.842Z" fill="currentColor"/></symbol>
<symbol id='calendar' fill="none"  viewBox="0 0 227 227"><path d="M62.3234 38C55.8725 38 49.6857 40.5626 45.1242 45.1241C40.5626 49.6855 38 55.8722 38 62.3231V70.4308H178.535V62.3231C178.535 55.8722 175.973 49.6855 171.411 45.1241C166.85 40.5626 160.663 38 154.212 38H62.3234ZM178.535 81.2411H38V154.21C38 160.661 40.5626 166.848 45.1242 171.409C49.6857 175.971 55.8725 178.533 62.3234 178.533H101.122L104.873 164.048C105.87 160.194 107.871 156.675 110.673 153.848L156.979 107.148C159.745 104.352 163.166 102.291 166.93 101.151C170.694 100.012 174.683 99.8308 178.535 100.624V81.2411ZM86.6469 110.969C86.6469 113.12 85.7927 115.182 84.2722 116.702C82.7516 118.223 80.6894 119.077 78.5391 119.077C76.3887 119.077 74.3265 118.223 72.806 116.702C71.2855 115.182 70.4312 113.12 70.4312 110.969C70.4312 108.819 71.2855 106.757 72.806 105.236C74.3265 103.716 76.3887 102.862 78.5391 102.862C80.6894 102.862 82.7516 103.716 84.2722 105.236C85.7927 106.757 86.6469 108.819 86.6469 110.969ZM78.5391 146.103C76.3887 146.103 74.3265 145.248 72.806 143.728C71.2855 142.207 70.4312 140.145 70.4312 137.995C70.4312 135.845 71.2855 133.782 72.806 132.262C74.3265 130.741 76.3887 129.887 78.5391 129.887C80.6894 129.887 82.7516 130.741 84.2722 132.262C85.7927 133.782 86.6469 135.845 86.6469 137.995C86.6469 140.145 85.7927 142.207 84.2722 143.728C82.7516 145.248 80.6894 146.103 78.5391 146.103ZM116.376 137.995C116.376 140.145 115.521 142.207 114.001 143.728C112.48 145.248 110.418 146.103 108.268 146.103C106.117 146.103 104.055 145.248 102.535 143.728C101.014 142.207 100.16 140.145 100.16 137.995C100.16 135.845 101.014 133.782 102.535 132.262C104.055 130.741 106.117 129.887 108.268 129.887C110.418 129.887 112.48 130.741 114.001 132.262C115.521 133.782 116.376 135.845 116.376 137.995ZM108.268 119.077C106.117 119.077 104.055 118.223 102.535 116.702C101.014 115.182 100.16 113.12 100.16 110.969C100.16 108.819 101.014 106.757 102.535 105.236C104.055 103.716 106.117 102.862 108.268 102.862C110.418 102.862 112.48 103.716 114.001 105.236C115.521 106.757 116.376 108.819 116.376 110.969C116.376 113.12 115.521 115.182 114.001 116.702C112.48 118.223 110.418 119.077 108.268 119.077ZM146.104 110.969C146.104 113.12 145.25 115.182 143.729 116.702C142.209 118.223 140.147 119.077 137.996 119.077C135.846 119.077 133.784 118.223 132.263 116.702C130.743 115.182 129.889 113.12 129.889 110.969C129.889 108.819 130.743 106.757 132.263 105.236C133.784 103.716 135.846 102.862 137.996 102.862C140.147 102.862 142.209 103.716 143.729 105.236C145.25 106.757 146.104 108.819 146.104 110.969ZM138.186 181.058L184.724 134.882C187.604 132.026 189.256 128.159 189.328 124.103C189.399 120.048 187.885 116.125 185.108 113.169C183.677 111.645 181.954 110.425 180.041 109.581C178.128 108.738 176.064 108.288 173.974 108.26C171.883 108.231 169.809 108.623 167.873 109.414C165.938 110.205 164.181 111.377 162.709 112.861L116.403 159.561C114.613 161.367 113.332 163.615 112.695 166.075L108.424 182.571C108.189 183.481 108.195 184.437 108.442 185.344C108.689 186.251 109.168 187.078 109.832 187.744C110.496 188.409 111.323 188.89 112.229 189.138C113.136 189.386 114.092 189.394 115.003 189.16L131.326 184.955C133.917 184.285 136.284 182.94 138.186 181.058Z" fill="currentColor"/></symbol>
<symbol id='car' fill="none"  viewBox="0 0 227 227"><path fill-rule="evenodd" clip-rule="evenodd" d="M56.75 132.416C67.1973 132.416 75.6668 140.886 75.6668 151.333C75.6668 161.781 67.1973 170.25 56.75 170.25C46.3027 170.25 37.8336 161.781 37.8336 151.333C37.8336 140.886 46.3027 132.416 56.75 132.416ZM165.521 132.416C175.968 132.416 184.437 140.886 184.437 151.333C184.437 161.781 175.968 170.25 165.521 170.25C155.074 170.25 146.604 161.781 146.604 151.333C146.604 140.886 155.074 132.416 165.521 132.416ZM126.111 66.2083L128.634 68.1001L164.925 95.321L193.755 102.533C201.681 104.515 207.38 111.333 208.023 119.365L208.084 120.885V153.989L200.919 155.78L193.175 157.716C193.656 155.623 193.897 153.481 193.896 151.333C193.896 135.662 181.192 122.958 165.521 122.958C149.85 122.958 137.146 135.662 137.146 151.333C137.146 154.65 137.715 157.833 138.761 160.792H83.5103C84.5824 157.754 85.1285 154.555 85.125 151.333C85.125 135.662 72.4214 122.958 56.75 122.958C41.079 122.958 28.375 135.662 28.375 151.333C28.375 152.772 28.4823 154.184 28.6885 155.565L18.9168 145.793V100.617L21.1092 97.9865L44.7549 69.6115L47.5911 66.2083H126.111ZM119.809 85.1251H56.4476L40.6862 104.041H132.417L137.822 98.636L119.809 85.1251Z" fill="currentColor"/></symbol>
<symbol id='card' fill="none"  viewBox="0 0 227 227"><path fill-rule="evenodd" clip-rule="evenodd" d="M208.15 101.844C208.162 105.551 208.168 109.493 208.168 113.667C208.168 149.334 208.159 167.163 197.083 178.248C186.008 189.333 168.17 189.333 132.502 189.333H94.6684C59.0013 189.333 41.1725 189.324 30.0874 178.248C19.0023 167.172 19.0024 149.334 19.0024 113.667C18.9961 109.493 19.0021 105.551 19.021 101.844H208.15ZM53.9995 139C48.4768 139 43.9995 143.477 43.9995 149C43.9995 154.523 48.4768 159 53.9995 159H83.9995C89.5223 159 93.9995 154.523 93.9995 149C93.9995 143.477 89.5223 139 83.9995 139H53.9995Z" fill="currentColor"/><path d="M132.502 38C168.169 38 186.008 38 197.083 49.085C205.066 57.0583 207.299 68.541 207.923 87.6562H19.2485C19.8728 68.541 22.1046 57.0583 30.0874 49.085C41.1631 38 59.0015 38 94.6684 38H132.502Z" fill="currentColor"/></symbol>
<symbol id='clock' fill="none"  viewBox="0 0 227 227"><path d="M113.5 18.9165C101.079 18.9165 88.7799 21.363 77.3045 26.1162C65.8291 30.8695 55.4023 37.8364 46.6194 46.6193C28.8816 64.3571 18.9166 88.4148 18.9166 113.5C18.9166 138.585 28.8816 162.643 46.6194 180.38C55.4023 189.163 65.8291 196.13 77.3045 200.883C88.7799 205.637 101.079 208.083 113.5 208.083C138.585 208.083 162.643 198.118 180.38 180.38C198.118 162.643 208.083 138.585 208.083 113.5C208.083 101.079 205.637 88.7797 200.884 77.3044C196.13 65.829 189.163 55.4022 180.38 46.6193C171.598 37.8364 161.171 30.8695 149.695 26.1162C138.22 21.363 125.921 18.9165 113.5 18.9165ZM153.225 153.225L104.042 122.958V66.2082H118.229V115.392L160.792 140.929L153.225 153.225Z" fill="currentColor"/></symbol>
<symbol id='close' viewBox="0 0 371 370" fill="none" ><path d="M7.73445 8.0647C12.6883 3.11234 19.4063 0.330256 26.411 0.330256C33.4158 0.330256 40.1337 3.11234 45.0876 8.0647L184.911 147.888L324.734 8.0647C327.171 5.54164 330.086 3.52916 333.309 2.14469C336.532 0.760215 339.999 0.0314774 343.506 0.000997415C347.014 -0.0294826 350.492 0.638899 353.739 1.96715C356.985 3.29541 359.935 5.25693 362.415 7.73726C364.895 10.2176 366.857 13.1671 368.185 16.4136C369.513 19.6601 370.182 23.1386 370.151 26.6462C370.121 30.1538 369.392 33.6202 368.008 36.8431C366.623 40.0661 364.611 42.981 362.088 45.4179L222.264 185.241L362.088 325.065C366.9 330.047 369.562 336.72 369.502 343.646C369.442 350.573 366.664 357.198 361.766 362.096C356.868 366.994 350.242 369.772 343.316 369.832C336.39 369.893 329.717 367.23 324.734 362.418L184.911 222.594L45.0876 362.418C40.1054 367.23 33.4325 369.893 26.5061 369.832C19.5797 369.772 12.9541 366.994 8.05623 362.096C3.15837 357.198 0.380151 350.573 0.319962 343.646C0.259774 336.72 2.92244 330.047 7.73445 325.065L147.558 185.241L7.73445 45.4179C2.78209 40.464 0 33.746 0 26.7413C0 19.7365 2.78209 13.0186 7.73445 8.0647Z" fill="currentColor"/></symbol>
<symbol id='email' fill="none"  viewBox="0 0 227 227"><path d="M189.167 37.8334H37.8332C27.429 37.8334 19.0111 46.3459 19.0111 56.75L18.9165 170.25C18.9165 180.654 27.429 189.167 37.8332 189.167H189.167C199.571 189.167 208.083 180.654 208.083 170.25V56.75C208.083 46.3459 199.571 37.8334 189.167 37.8334ZM189.167 75.6667L113.5 122.958L37.8332 75.6667V56.75L113.5 104.042L189.167 56.75V75.6667Z" fill="currentColor"/></symbol>
<symbol id='facebook' fill="none"  viewBox="0 0 227 227"><path d="M132.416 127.688H156.062L165.521 89.8542H132.416V70.9375C132.416 61.1954 132.416 52.0209 151.333 52.0209H165.521V20.2409C162.437 19.8341 150.794 18.9167 138.498 18.9167C112.819 18.9167 94.583 34.5891 94.583 63.3709V89.8542H66.208V127.688H94.583V208.083H132.416V127.688Z" fill="currentColor"/></symbol>
<symbol id='instagram' fill="none"  viewBox="0 0 227 227"><path d="M123.223 18.9167C133.864 18.9451 139.264 19.0018 143.927 19.1342L145.762 19.2004C147.881 19.2761 149.971 19.3707 152.497 19.4842C162.56 19.9571 169.427 21.5461 175.452 23.8823C181.694 26.2847 186.953 29.5384 192.212 34.7878C197.023 39.5144 200.745 45.2342 203.118 51.5479C205.454 57.5729 207.043 64.4396 207.516 74.5128C207.629 77.0287 207.724 79.119 207.799 81.2471L207.856 83.082C207.998 87.7355 208.055 93.1362 208.074 103.777L208.083 110.833V123.223C208.106 130.122 208.034 137.021 207.866 143.918L207.809 145.753C207.733 147.881 207.639 149.971 207.525 152.487C207.052 162.56 205.444 169.418 203.118 175.452C200.745 181.766 197.023 187.486 192.212 192.212C187.485 197.024 181.766 200.745 175.452 203.118C169.427 205.454 162.56 207.043 152.497 207.516L145.762 207.8L143.927 207.856C139.264 207.989 133.864 208.055 123.223 208.074L116.167 208.083H103.786C96.884 208.108 89.9819 208.035 83.0818 207.866L81.2469 207.809C79.0016 207.724 76.7568 207.626 74.5126 207.516C64.4489 207.043 57.5822 205.454 51.5478 203.118C45.2374 200.744 39.5209 197.023 34.7971 192.212C29.9822 187.487 26.2572 181.767 23.8821 175.452C21.5459 169.427 19.9569 162.56 19.484 152.487L19.2003 145.753L19.153 143.918C18.9786 137.021 18.8998 130.122 18.9165 123.223V103.777C18.8903 96.8779 18.9597 89.979 19.1246 83.082L19.1908 81.2471C19.2665 79.119 19.3611 77.0287 19.4746 74.5128C19.9475 64.4396 21.5365 57.5824 23.8727 51.5479C26.2533 45.2316 29.9849 39.5116 34.8065 34.7878C39.5277 29.9787 45.2408 26.257 51.5478 23.8823C57.5822 21.5461 64.4395 19.9571 74.5126 19.4842C77.0285 19.3707 79.1283 19.2761 81.2469 19.2004L83.0818 19.1437C89.9788 18.9756 96.8777 18.9031 103.777 18.9261L123.223 18.9167ZM113.5 66.2084C100.957 66.2084 88.9285 71.1909 80.0596 80.0598C71.1907 88.9287 66.2082 100.957 66.2082 113.5C66.2082 126.043 71.1907 138.071 80.0596 146.94C88.9285 155.809 100.957 160.792 113.5 160.792C126.042 160.792 138.071 155.809 146.94 146.94C155.809 138.071 160.792 126.043 160.792 113.5C160.792 100.957 155.809 88.9287 146.94 80.0598C138.071 71.1909 126.042 66.2084 113.5 66.2084ZM113.5 85.125C117.226 85.1244 120.916 85.8577 124.359 87.2831C127.802 88.7085 130.93 90.7981 133.565 93.4325C136.201 96.0669 138.291 99.1946 139.718 102.637C141.144 106.079 141.879 109.769 141.88 113.495C141.88 117.222 141.147 120.911 139.721 124.354C138.296 127.797 136.206 130.926 133.572 133.561C130.938 136.196 127.81 138.287 124.368 139.713C120.925 141.14 117.236 141.874 113.509 141.875C105.984 141.875 98.7665 138.886 93.4451 133.564C88.1238 128.243 85.1343 121.026 85.1343 113.5C85.1343 105.975 88.1238 98.7572 93.4451 93.4359C98.7665 88.1145 105.984 85.125 113.509 85.125M163.166 52.0209C160.03 52.0209 157.023 53.2665 154.805 55.4837C152.588 57.7009 151.343 60.7081 151.343 63.8438C151.343 66.9794 152.588 69.9866 154.805 72.2038C157.023 74.4211 160.03 75.6667 163.166 75.6667C166.301 75.6667 169.308 74.4211 171.526 72.2038C173.743 69.9866 174.988 66.9794 174.988 63.8438C174.988 60.7081 173.743 57.7009 171.526 55.4837C169.308 53.2665 166.301 52.0209 163.166 52.0209Z" fill="currentColor"/></symbol>
<symbol id='location' fill="none"  viewBox="0 0 227 227"><path d="M95.671 206.296C101.403 211.025 107.38 215.347 113.5 219.566C119.633 215.403 125.581 210.976 131.329 206.296C140.91 198.428 149.927 189.898 158.314 180.768C177.646 159.628 198.625 128.983 198.625 94.5834C198.625 83.4046 196.423 72.3353 192.145 62.0074C187.867 51.6796 181.597 42.2955 173.692 34.3909C165.788 26.4863 156.404 20.2161 146.076 15.9381C135.748 11.6602 124.679 9.45837 113.5 9.45837C102.321 9.45837 91.2519 11.6602 80.9241 15.9381C70.5962 20.2161 61.2121 26.4863 53.3075 34.3909C45.4029 42.2955 39.1327 51.6796 34.8548 62.0074C30.5768 72.3353 28.375 83.4046 28.375 94.5834C28.375 128.983 49.3536 159.619 68.6864 180.768C77.0724 189.901 86.0894 198.425 95.671 206.296ZM113.5 125.323C105.347 125.323 97.5286 122.084 91.7638 116.32C85.999 110.555 82.7604 102.736 82.7604 94.5834C82.7604 86.4307 85.999 78.612 91.7638 72.8472C97.5286 67.0824 105.347 63.8438 113.5 63.8438C121.653 63.8438 129.471 67.0824 135.236 72.8472C141.001 78.612 144.24 86.4307 144.24 94.5834C144.24 102.736 141.001 110.555 135.236 116.32C129.471 122.084 121.653 125.323 113.5 125.323Z" fill="currentColor"/></symbol>
<symbol id='logo' fill="none"  viewBox="0 0 821 260"><path d="M93.4401 5.8042C99.9781 5.0962 107.003 5.6282 113.601 5.6562L151.881 5.7482L222.186 5.7152C234.538 5.6862 246.951 5.3492 259.297 5.6242C261.44 5.6722 263.68 5.7352 265.551 6.8792C265.56 6.9942 265.585 7.1092 265.576 7.2242C265.263 11.1022 256.194 21.3872 253.658 24.8352C250.802 28.7162 238.553 46.5402 235.451 47.9392C229.497 50.6242 213.151 49.4112 206.044 49.4082L135.145 49.6402C123.477 49.6582 107.85 48.5772 96.8351 50.3802C92.4201 51.1022 88.3071 52.8332 84.9681 55.8682C81.5531 58.9732 79.4601 63.0952 79.4431 67.7482C79.4261 72.2602 80.9221 76.8342 84.2281 80.0072C90.6721 86.1952 102.948 85.4582 111.204 85.3392C126.221 85.2252 141.239 85.2362 156.256 85.3722C178.269 85.3942 201.763 83.8042 223.098 90.0132C232.669 92.7982 241.952 97.9632 249.078 104.972C260.244 115.954 264.458 128.415 264.484 143.863C264.512 160.302 259.544 174.256 247.75 185.985C229.152 204.482 199.589 206.399 174.875 206.443L62.2951 206.79L25.5081 206.851C17.2781 206.85 9.00608 207.055 0.801083 206.339C0.151083 205.815 0.0880835 205.994 0.0110835 205.264C-0.501917 200.413 21.9781 172.247 26.4051 167.384C28.9681 164.57 31.7881 162.706 35.6091 162.159C40.2951 161.488 45.3771 161.843 50.1221 161.84L76.6301 161.908L142.777 162.196C156.657 162.219 170.614 162.42 184.481 161.776C190.675 161.488 198.975 160.181 203.258 155.213C206.377 151.596 207.433 145.892 207.062 141.229C206.499 134.161 202.185 129.616 195.667 127.285C186.98 124.178 176.431 125.219 167.322 125.123C149.447 125.024 131.571 125.029 113.695 125.137C101.602 125.17 88.7161 125.882 76.7721 123.849C63.7051 121.626 50.9251 117.119 40.9491 108.157C30.1511 98.4572 24.1311 84.8832 23.3671 70.4602C22.5191 54.4482 27.0391 38.7642 37.9651 26.7922C52.4901 10.8772 72.8751 6.6022 93.4401 5.8042ZM745.654 206.164C736.758 207.177 727.524 206.827 718.582 206.812L678.789 206.645L643.684 206.482C635.821 206.444 627.87 206.601 620.032 205.927C610.3 205.09 600.442 203.443 591.108 200.559C574.711 195.493 559.406 185.312 551.341 169.823C548.345 164.07 545.738 157.628 544.717 151.193C542.922 139.894 544.003 125.222 543.837 113.535C543.62 98.2462 542.335 82.3932 543.349 67.1592C543.703 62.3767 544.628 57.6538 546.104 53.0912C551.626 36.0652 563.8 22.9942 579.59 14.9442C589.001 10.1462 599.757 7.2102 610.251 6.1252C618.533 5.2682 627.093 5.5982 635.413 5.5692L681.235 5.6052L740.308 5.5492C750.426 5.5562 760.725 5.1962 770.821 5.7462C774.18 5.9282 777.175 6.3602 780.377 7.4062C780.234 7.6872 780.087 7.9672 779.947 8.2512C776.037 16.1372 769.256 23.5082 763.951 30.5692C759.54 36.4392 755.384 42.7612 750.489 48.2252C741.128 50.9262 729.694 49.7652 719.975 49.7862L661.315 49.9162C650.87 49.9462 639.84 49.3532 629.465 50.4642C625.524 50.8852 621.658 51.7242 618.108 53.5442C612.323 56.5102 607.15 61.7912 605.267 68.0942C604.202 71.6612 602.981 79.4352 604.764 82.7712C607.039 83.9262 610.398 84.0352 612.947 84.1652C624.402 84.7472 636.195 84.1702 647.683 84.2132C672.875 84.3332 698.067 84.2182 723.257 83.8712C731.795 83.7112 744.386 82.4632 752.3 83.0662C754.523 83.2362 756.12 83.4462 757.633 85.1642C757.697 85.6492 757.767 85.9072 757.637 86.4292C756.907 89.3562 749.082 97.8222 746.773 101.002C742.926 106.301 733.657 120.879 728.432 123.732C723.204 126.587 702.188 125.255 695.681 125.249L641.052 125.225C631.388 125.23 621.532 124.833 611.895 125.389C610.251 125.483 607.258 125.51 605.939 126.546C604.506 127.671 604.244 130.411 604.246 132.068C604.257 140.304 607.646 149.236 613.553 155.022C617.398 158.788 622.382 159.999 627.556 160.703C635.017 161.718 642.624 161.444 650.137 161.435L678.797 161.392C709.434 161.482 740.071 161.355 770.706 161.012C772.544 161.524 774.748 161.822 775.66 163.713C776.135 164.698 775.824 165.95 775.375 166.892C773.83 170.133 770.486 173.089 768.27 175.959C760.573 185.938 753.517 196.274 745.654 206.164ZM394.685 1.0852C404.874 0.1492 416.226 1.2562 425.224 6.5022C429.611 9.0592 433.651 13.1722 436.598 17.2942C442.096 24.9862 446.822 33.5722 451.742 41.6582C460.116 55.4496 468.567 69.1935 477.096 82.8892L525.605 160.187C533.101 172.11 549.138 193.631 552.478 206.154C545.222 206.872 494.567 207.472 489.986 205.533C478.809 200.803 474.425 178.13 465.74 174.493C464.072 173.794 462.01 174.148 460.334 174.629C445.868 178.784 437.518 200.189 426.901 204.296C424.573 205.197 421.759 205.325 419.279 205.471C409.287 206.063 336.604 207.505 331.668 205.321L331.326 204.237C332.481 197.765 353.712 164.891 358.785 159.711C360.523 157.937 362.111 157.367 364.55 156.987C372.329 155.776 381.227 156.562 389.103 156.621C402.547 156.723 415.992 156.737 429.437 156.661C436.443 156.544 447.258 157.231 453.722 154.973C454.005 152.521 451.956 148.959 450.795 146.81C444.431 135.035 435.722 122.959 428.506 111.517C419.827 97.7542 411.959 83.4832 402.169 70.4582C395.626 75.3762 391.794 83.8852 387.276 90.5632C367.367 119.986 349.084 150.504 329.303 180.009C323.766 188.268 319.202 196.92 312.983 204.734C302.263 207.052 290.284 206.251 279.346 206.331C270.612 206.394 261.313 207.03 252.647 205.822C251.449 205.655 250.082 205.536 249.332 204.531C249.903 200.034 254.044 194.323 256.398 190.373C262.195 180.646 268.701 171.356 274.718 161.766L324.398 82.9032L352.834 37.6782C357.922 29.6222 362.768 20.7842 368.77 13.3822C375.238 5.4062 384.82 2.1222 394.685 1.0852Z" fill="currentColor"/><path d="M742.95 219.636C750.567 219.345 757.387 219.207 764.133 223.366C768.874 226.288 772.658 230.882 773.776 236.411C774.775 241.349 773.994 247.031 771.14 251.247C767.87 256.077 762.664 258.159 757.193 259.35C749.869 259.915 741.662 260.251 735.064 256.45C730.7 253.935 727.982 249.944 726.868 245.065C725.553 239.303 726.336 232.881 729.673 227.927C732.868 223.185 737.48 220.729 742.95 219.636ZM753.378 249.914C756.707 248.886 759.575 247.065 761.198 243.876C762.457 241.401 762.579 238.394 761.647 235.79C760.661 233.035 758.634 231.044 755.964 229.9C753.225 228.726 750.322 228.914 747.422 229.065C743.951 229.909 741.345 230.871 739.361 234.029C737.862 236.415 737.513 239.372 738.185 242.086C738.885 244.916 740.707 247.019 743.244 248.4C746.38 250.107 749.915 250.065 753.378 249.914Z" fill="currentColor"/><path d="M429.421 223.084C434.762 222.975 440.104 222.961 445.445 223.043C445.6 234.972 445.599 246.903 445.441 258.832L434.162 258.88C434.222 252.744 434.387 246.591 434.089 240.459L433.562 240.17L433.98 239.807L433.595 239.44L433.123 240.777C431.333 246.823 429.698 252.914 428.219 259.043C425.253 259.109 422.269 259.019 419.301 258.994C417.207 251.069 414.986 243.179 412.638 235.325C413.015 243.23 413.162 251.145 413.078 259.058L402.81 259.119L402.793 223.247L417.604 223.056L418.487 223.075C420.821 226.324 423.379 240.045 424.575 244.78C426.427 237.642 428.253 230.366 429.421 223.084Z" fill="#FB371E"/><path d="M687.962 221.143C695.738 221.196 704.452 220.307 712.102 221.512C714.852 221.946 717.635 223.079 719.238 225.47C721.066 228.2 721.062 232.238 720.431 235.342C719.683 239.018 717.148 241.186 714.152 243.172C716.91 246.352 720.123 249.571 722.435 253.078C723.452 254.619 723.883 255.731 723.516 257.558C722.869 258.2 722.481 258.444 721.576 258.689C718.639 259.482 714.477 258.864 711.843 257.43C707.141 253.552 704.227 248.24 699.467 244.433C697.45 244.311 695.406 244.352 693.384 244.326C693.171 249.002 692.898 253.674 692.567 258.342C688.59 258.986 685.469 258.765 681.563 257.85C681.028 246.027 680.843 233.389 681.502 221.587L687.962 221.143ZM693.119 235.089C697.674 235.373 702.109 235.33 706.658 234.97C707.827 234.328 708.654 233.817 709.601 232.85L709.592 231.859C705.777 228.638 700.789 229.319 696.129 229.561C694.615 229.849 694.192 229.675 693.242 230.946L693.119 235.089Z" fill="currentColor"/><path d="M465.832 222.915C471.283 222.51 476.685 222.216 481.622 225.051C483.531 226.153 485.199 227.627 486.527 229.386C487.856 231.145 488.816 233.153 489.353 235.29C490.676 240.399 490.268 246.729 487.524 251.297C484.748 255.917 480.771 257.735 475.777 258.97C469.875 259.881 463.158 259.761 458.083 256.254C454.319 253.653 452.154 249.674 451.368 245.225C450.447 240.007 451.107 234.12 454.247 229.721C457.159 225.643 461.066 223.832 465.832 222.915ZM472.74 250.901C475.397 249.61 476.701 248.448 477.659 245.597C478.752 242.346 478.786 238.18 477.186 235.082C476.308 233.383 474.872 231.867 472.987 231.341C471.437 230.908 469.663 231.179 468.085 231.314C465.628 232.373 464.432 233.12 463.435 235.662C462.147 238.944 462.106 243.006 463.611 246.231C464.505 248.147 465.979 249.787 467.995 250.522C469.51 251.074 471.157 250.951 472.74 250.901ZM549.572 222.54C554.304 222.838 558.802 223.688 562.481 226.897C566.349 230.271 567.956 235.15 568.137 240.165C568.32 245.235 567.097 250.422 563.46 254.136C559.327 258.356 554.06 259.326 548.418 259.512C543.609 259.518 538.956 258.452 535.22 255.259C531.491 252.073 529.812 247.561 529.424 242.771C529.011 237.675 530.026 232.407 533.497 228.488C537.809 223.616 543.493 222.924 549.572 222.54ZM550.548 251.057C553.597 249.489 555.003 248.322 556.01 244.951C556.962 241.766 556.906 237.704 555.158 234.79C554.098 233.023 552.614 231.734 550.545 231.365C549.396 231.16 548.159 231.262 546.998 231.314C544.601 232.09 543.203 232.759 542.023 235.069C540.45 238.148 540.304 241.978 541.428 245.23C542.158 247.344 543.611 249.508 545.705 250.454C547.184 251.123 548.959 251.033 550.548 251.057ZM574.557 223.032C582.219 222.894 591.412 221.788 598.885 223.257C601.986 223.866 605.034 225.347 606.751 228.102C608.32 230.62 608.853 234.273 607.984 237.124C606.973 240.445 604.216 242.342 601.31 243.902C604.05 248.901 606.704 253.947 609.271 259.036L602.471 259.277L596.481 259.002C594.373 254.658 592.335 250.281 590.368 245.871L585.754 246.027L585.878 258.901L574.572 258.842C574.354 246.907 574.349 234.968 574.557 223.032ZM585.765 238.049C589.175 237.992 592.65 238.062 596.028 237.566C596.507 236.016 596.823 234.891 596.655 233.266C595.842 232.053 595.316 231.487 593.832 231.224C591.198 230.758 588.116 231.145 585.442 231.25C585.673 233.545 585.791 235.74 585.765 238.049Z" fill="#FB371E"/><path d="M644.343 221.146C648.718 220.593 662.67 221.095 667 221.956C669.163 222.386 670.997 223.201 672.949 224.202C674.987 227.079 676.073 229.468 676.337 233.044C676.453 234.505 676.262 235.973 675.777 237.356C675.292 238.738 674.523 240.004 673.52 241.072C669.403 245.439 662.891 245.171 657.369 245.317L650.176 245.362C649.995 249.637 649.512 253.893 648.731 258.1C645.316 258.561 641.973 258.527 638.551 258.195C636.814 249.213 637.879 231.147 638.842 221.676C640.643 221.394 642.525 221.316 644.343 221.146ZM662.241 235.823C662.695 234.305 662.875 233.448 662.503 231.893C661.582 230.569 660.748 230.029 659.197 229.706C656.576 229.159 653.65 229.57 650.985 229.642C650.139 231.747 650.307 234.239 650.23 236.486C654.24 236.386 658.245 236.165 662.241 235.823Z" fill="currentColor"/><path d="M491.914 222.973C503.624 222.833 515.334 223.005 527.044 223.001L527.042 232.187L515.302 232.294C515.42 237.062 515.365 241.85 515.385 246.62L515.335 259.002L504.237 259.154C504.055 250.144 504.095 241.121 504.041 232.108L492.474 232.255C492.046 229.186 492.025 226.066 491.914 222.973Z" fill="#FB371E"/><path d="M799.5 176.5C810.579 176.5 819.5 185.264 819.5 196C819.5 206.736 810.579 215.5 799.5 215.5C788.421 215.5 779.5 206.736 779.5 196C779.5 185.264 788.421 176.5 799.5 176.5Z" stroke="currentColor" stroke-width="3"/><path d="M791.818 207V183.727H799.682C801.5 183.727 802.992 184.038 804.159 184.659C805.326 185.273 806.189 186.117 806.75 187.193C807.311 188.269 807.591 189.492 807.591 190.864C807.591 192.235 807.311 193.451 806.75 194.511C806.189 195.572 805.33 196.405 804.17 197.011C803.011 197.61 801.53 197.909 799.727 197.909H793.364V195.364H799.636C800.879 195.364 801.879 195.182 802.636 194.818C803.402 194.455 803.955 193.939 804.295 193.273C804.644 192.598 804.818 191.795 804.818 190.864C804.818 189.932 804.644 189.117 804.295 188.42C803.947 187.723 803.39 187.186 802.625 186.807C801.86 186.42 800.848 186.227 799.591 186.227H794.636V207H791.818ZM802.773 196.545L808.5 207H805.227L799.591 196.545H802.773Z" fill="currentColor"/></symbol>
<symbol id='moon' fill="none"  viewBox="0 0 227 227"><path d="M117.047 212.813C89.7669 212.813 63.6042 201.976 44.3143 182.686C25.0244 163.396 14.1875 137.233 14.1875 109.953C14.1875 68.2775 38.1289 30.9111 75.1982 14.7773C76.5046 14.2079 77.9523 14.0452 79.3525 14.3105C80.7528 14.5757 82.0407 15.2565 83.0484 16.2642C84.0561 17.272 84.7369 18.5599 85.0022 19.9601C85.2674 21.3603 85.1047 22.808 84.5353 24.1144C80.2791 33.8861 78.0312 46.4021 78.0312 60.297C78.0312 109.191 117.809 148.969 166.703 148.969C180.598 148.969 193.114 146.721 202.886 142.465C204.192 141.895 205.64 141.733 207.04 141.998C208.44 142.263 209.728 142.944 210.736 143.952C211.744 144.959 212.424 146.247 212.69 147.648C212.955 149.048 212.792 150.495 212.223 151.802C196.089 188.871 158.723 212.813 117.047 212.813Z" fill="currentColor"/></symbol>
<symbol id='padlock' viewBox="0 0 304 380" fill="none" ><path d="M247 133V95C247 41.8 205.2 0 152 0C98.8 0 57 41.8 57 95V133C24.7 133 0 157.7 0 190V323C0 355.3 24.7 380 57 380H247C279.3 380 304 355.3 304 323V190C304 157.7 279.3 133 247 133ZM95 95C95 62.7 119.7 38 152 38C184.3 38 209 62.7 209 95V133H95V95ZM172.9 256.5L171 258.4V285C171 296.4 163.4 304 152 304C140.6 304 133 296.4 133 285V258.4C121.6 247 119.7 229.9 131.1 218.5C142.5 207.1 159.6 205.2 171 216.6C182.4 226.1 184.3 245.1 172.9 256.5Z" fill="currentColor"/></symbol>
<symbol id='paypal' fill="none"  viewBox="0 0 227 227"><path d="M93.9216 122.864C94.8674 122.864 116.811 123.81 129.863 120.594H129.958C144.997 116.905 165.9 106.312 171.291 71.6942C171.291 71.6942 183.303 28.375 123.715 28.375H72.5458C67.9112 28.375 63.9387 31.78 63.182 36.32L41.4279 174.033C40.9549 176.871 43.2249 179.519 46.0624 179.519H78.5045L86.4495 129.201C87.017 125.607 90.1383 122.864 93.9216 122.864Z" fill="currentColor"/><path d="M179.614 78.4095C171.953 113.689 147.834 132.322 109.433 132.322H95.5292L85.7871 193.99C85.4088 196.45 87.3004 198.625 89.7596 198.625H107.73C110.946 198.625 113.784 196.26 114.257 193.045C115.013 189.261 119.175 161.643 120.026 156.914C120.499 153.698 123.337 151.333 126.553 151.333H130.714C157.387 151.333 178.29 140.456 184.438 109.149C186.897 96.475 185.573 86.0708 179.614 78.4095Z" fill="currentColor"/></symbol>
<symbol id='phone' fill="none"  viewBox="0 0 227 227"><path d="M85.1248 28.375C86.8205 28.3745 88.4852 28.8299 89.9445 29.6935C91.4038 30.5572 92.6042 31.7972 93.4198 33.2839L93.9022 34.3243L112.819 81.616C113.581 83.5186 113.704 85.6172 113.17 87.596C112.636 89.5747 111.474 91.3265 109.858 92.5876L108.913 93.2308L93.0793 102.727L93.6752 103.701C101.211 115.666 111.334 125.789 123.299 133.325L124.263 133.911L133.769 118.097C134.822 116.338 136.419 114.97 138.317 114.197C140.216 113.424 142.314 113.289 144.296 113.812L145.384 114.181L192.676 133.098C194.25 133.726 195.627 134.766 196.662 136.109C197.697 137.451 198.352 139.048 198.559 140.731L198.625 141.875V179.708C198.625 195.381 185.922 208.083 169.682 208.064C88.5393 203.137 23.8538 138.451 18.9165 56.75C18.9161 49.5124 21.6814 42.5482 26.6466 37.2823C31.6119 32.0164 38.4017 28.8469 45.6268 28.4223L47.2915 28.375H85.1248Z" fill="currentColor"/></symbol>
<symbol id='shield' fill="none"  viewBox="0 0 227 227"><path d="M113.5 208.083C91.5879 202.566 73.4972 189.993 59.2278 170.363C44.9583 150.734 37.8267 128.942 37.833 104.987V47.2916L113.5 18.9166L189.166 47.2916V104.987C189.166 128.949 182.035 150.744 167.772 170.373C153.508 190.002 135.418 202.572 113.5 208.083Z" fill="currentColor"/></symbol>
<symbol id='shopCar' fill="none"  viewBox="0 0 227 227"><path d="M1 21.4688C1 16.2215 5.21684 12 10.4583 12H28.3898C37.0599 12 44.7448 17.05 48.3311 24.625H210.305C220.67 24.625 228.236 34.4883 225.517 44.5094L209.359 104.596C206.009 116.985 194.778 125.625 181.969 125.625H68.2724L70.4005 136.869C71.2675 141.327 75.1691 144.562 79.7012 144.562H193.319C198.561 144.562 202.778 148.784 202.778 154.031C202.778 159.279 198.561 163.5 193.319 163.5H79.7012C66.0655 163.5 54.3608 153.795 51.8385 140.42L31.5031 33.502C31.2273 32.0027 29.9267 30.9375 28.3898 30.9375H10.4583C5.21684 30.9375 1 26.716 1 21.4688ZM51.4444 195.062C51.4444 192.576 51.9337 190.113 52.8844 187.815C53.835 185.518 55.2284 183.43 56.985 181.672C58.7416 179.913 60.8269 178.518 63.122 177.567C65.4171 176.615 67.8769 176.125 70.3611 176.125C72.8453 176.125 75.3051 176.615 77.6002 177.567C79.8953 178.518 81.9806 179.913 83.7372 181.672C85.4938 183.43 86.8872 185.518 87.8378 187.815C88.7885 190.113 89.2778 192.576 89.2778 195.062C89.2778 197.549 88.7885 200.012 87.8378 202.31C86.8872 204.607 85.4938 206.695 83.7372 208.453C81.9806 210.212 79.8953 211.607 77.6002 212.558C75.3051 213.51 72.8453 214 70.3611 214C67.8769 214 65.4171 213.51 63.122 212.558C60.8269 211.607 58.7416 210.212 56.985 208.453C55.2284 206.695 53.835 204.607 52.8844 202.31C51.9337 200.012 51.4444 197.549 51.4444 195.062ZM183.861 176.125C188.878 176.125 193.69 178.12 197.237 181.672C200.785 185.223 202.778 190.04 202.778 195.062C202.778 200.085 200.785 204.902 197.237 208.453C193.69 212.005 188.878 214 183.861 214C178.844 214 174.033 212.005 170.485 208.453C166.937 204.902 164.944 200.085 164.944 195.062C164.944 190.04 166.937 185.223 170.485 181.672C174.033 178.12 178.844 176.125 183.861 176.125Z" fill="currentColor"/></symbol>
<symbol id='star' fill="none"  viewBox="0 0 227 227"><path d="M86.5722 51.1505C98.5559 29.6612 104.543 18.9165 113.5 18.9165C122.457 18.9165 128.444 29.6612 140.428 51.1505L143.53 56.712C146.935 62.8221 148.638 65.8771 151.286 67.8918C153.934 69.9064 157.245 70.6536 163.866 72.148L169.881 73.51C193.149 78.7783 204.773 81.4077 207.544 90.308C210.306 99.1988 202.38 108.477 186.518 127.025L182.414 131.821C177.911 137.089 175.651 139.728 174.639 142.981C173.627 146.245 173.967 149.763 174.648 156.791L175.272 163.194C177.665 187.946 178.867 200.318 171.622 205.813C164.376 211.308 153.48 206.296 131.707 196.27L126.061 193.678C119.875 190.822 116.782 189.403 113.5 189.403C110.218 189.403 107.125 190.822 100.939 193.678L95.3023 196.27C73.5197 206.296 62.6237 211.308 55.3881 205.823C48.1336 200.318 49.3348 187.946 51.7277 163.194L52.352 156.8C53.033 149.763 53.3735 146.245 52.352 142.991C51.3494 139.728 49.0889 137.089 44.5867 131.83L40.4818 127.025C24.6202 108.487 16.6941 99.2083 19.4559 90.308C22.2177 81.4077 33.8609 78.7688 57.1284 73.51L63.1439 72.148C69.7553 70.6536 73.0563 69.9064 75.7141 67.8918C78.3719 65.8771 80.0649 62.8221 83.4699 56.712L86.5722 51.1505Z" fill="currentColor"/></symbol>
<symbol id='sun' fill="none"  viewBox="0 0 227 227"><path d="M113.5 75.6664C123.534 75.6664 133.157 79.6525 140.252 86.7475C147.347 93.8426 151.333 103.466 151.333 113.5C151.333 123.534 147.347 133.157 140.252 140.252C133.157 147.347 123.534 151.333 113.5 151.333C103.466 151.333 93.8432 147.347 86.7481 140.252C79.6531 133.157 75.6671 123.534 75.6671 113.5C75.6671 103.466 79.653 93.8426 86.7481 86.7475C93.8432 79.6526 103.466 75.6664 113.5 75.6664Z" fill="currentColor"/><path fill-rule="evenodd" clip-rule="evenodd" d="M144.62 24.2475C146.214 24.0501 147.832 24.2619 149.321 24.8627C150.811 25.4636 152.122 26.4339 153.133 27.682C154.144 28.9302 154.82 30.4156 155.098 31.9975L159.761 58.5941C160.1 60.5387 161.04 62.3283 162.447 63.7123C163.855 65.0964 165.661 66.0057 167.611 66.3119L194.293 70.4828C195.881 70.732 197.379 71.3819 198.646 72.3705C199.912 73.3591 200.907 74.6539 201.534 76.1332C202.162 77.6125 202.401 79.2277 202.232 80.8256C202.062 82.4233 201.488 83.9516 200.565 85.266L185.053 107.361C183.919 108.977 183.319 110.908 183.338 112.882C183.357 114.857 183.992 116.776 185.156 118.371L201.065 140.191C202.012 141.489 202.611 143.006 202.809 144.6C203.006 146.194 202.795 147.812 202.194 149.301C201.594 150.791 200.623 152.103 199.375 153.114C198.127 154.124 196.641 154.801 195.06 155.079L168.463 159.742C166.516 160.079 164.724 161.017 163.338 162.425C161.952 163.833 161.042 165.64 160.735 167.591L156.573 194.264C156.325 195.852 155.678 197.352 154.69 198.62C153.702 199.887 152.406 200.883 150.927 201.511C149.447 202.14 147.832 202.38 146.233 202.211C144.635 202.042 143.105 201.469 141.79 200.544L119.695 185.033C118.08 183.897 116.15 183.296 114.176 183.313C112.201 183.33 110.281 183.964 108.686 185.127L86.8653 201.045C85.5668 201.992 84.0487 202.592 82.4542 202.788C80.8598 202.985 79.2415 202.773 77.752 202.171C76.2624 201.569 74.9507 200.597 73.9405 199.348C72.9305 198.099 72.2553 196.613 71.9786 195.031L67.3155 168.433C66.9743 166.49 66.0335 164.703 64.626 163.321C63.2184 161.939 61.4139 161.031 59.4649 160.725L32.7921 156.544C31.2054 156.296 29.7081 155.647 28.4415 154.66C27.1748 153.672 26.1802 152.378 25.5518 150.9C24.9237 149.422 24.6818 147.808 24.8497 146.211C25.0176 144.614 25.5898 143.085 26.5118 141.77L42.0235 119.666C43.1588 118.051 43.7602 116.12 43.7432 114.146C43.7262 112.172 43.0916 110.252 41.9288 108.657L26.0108 86.8461C25.0646 85.5477 24.4646 84.0294 24.2676 82.435C24.0707 80.8404 24.2829 79.2215 24.8848 77.7318C25.4868 76.2422 26.4587 74.9305 27.7081 73.9203C28.9574 72.9102 30.4438 72.235 32.0264 71.9584L58.6231 67.2953C60.5674 66.9536 62.356 66.0123 63.7383 64.6029C65.1206 63.1935 66.0272 61.3865 66.3311 59.4359L70.5118 32.7631C70.7604 31.1764 71.4092 29.6792 72.3966 28.4125C73.384 27.1458 74.6782 26.1512 76.1563 25.5229C77.6344 24.8946 79.2485 24.6528 80.8458 24.8207C82.443 24.9887 83.9712 25.5609 85.2862 26.4828L107.39 41.9945C109.005 43.1299 110.936 43.7312 112.91 43.7143C114.885 43.6973 116.804 43.0627 118.399 41.8998L140.211 25.9906C141.509 25.0447 143.026 24.4449 144.62 24.2475ZM113.5 66.2074C100.958 66.2075 88.9285 71.1901 80.0596 80.059C71.1908 88.9279 66.2091 100.957 66.2091 113.499C66.2091 126.042 71.1908 138.071 80.0596 146.94C88.9285 155.809 100.958 160.791 113.5 160.791C126.043 160.791 138.072 155.809 146.94 146.94C155.809 138.071 160.792 126.042 160.792 113.499C160.792 100.957 155.809 88.9279 146.94 80.059C138.072 71.1901 126.043 66.2074 113.5 66.2074Z" fill="currentColor"/></symbol>
<symbol id='tool' fill="none"  viewBox="0 0 227 227"><path fill-rule="evenodd" clip-rule="evenodd" d="M71.1929 25.1308C83.015 22.0848 95.4491 22.3664 107.121 25.9444C118.793 29.5224 129.249 36.2575 137.333 45.4056C145.418 54.5536 150.816 65.7585 152.931 77.7821C155.046 89.8058 153.796 102.18 149.319 113.538L192.818 150.359C196.117 153.147 198.801 156.589 200.701 160.468C202.601 164.347 203.676 168.578 203.856 172.894C204.037 177.209 203.32 181.515 201.75 185.539C200.181 189.563 197.794 193.218 194.739 196.272C191.685 199.326 188.03 201.712 184.005 203.281C179.981 204.849 175.674 205.565 171.359 205.384C167.044 205.202 162.813 204.127 158.934 202.226C155.056 200.325 151.614 197.64 148.827 194.34L112.024 150.86C100.665 155.345 88.2874 156.6 76.2591 154.489C64.2309 152.377 53.0209 146.98 43.8685 138.895C34.7162 130.809 27.9781 120.35 24.3991 108.674C20.8202 96.9983 20.5398 84.56 23.5891 72.7346C24.019 71.073 24.8886 69.5579 26.1066 68.3486C27.3245 67.1394 28.8457 66.2805 30.5103 65.8624C32.1749 65.4444 33.9214 65.4825 35.5662 65.9727C37.211 66.463 38.6934 67.3873 39.8574 68.6486L68.658 99.9273L90.3838 91.935L98.395 70.1808L67.0974 41.4275C65.8286 40.2638 64.8979 38.7789 64.4036 37.1298C63.9094 35.4806 63.8699 33.7286 64.2895 32.0589C64.7091 30.3892 65.5722 28.8639 66.7873 27.6444C68.0025 26.4249 69.5247 25.5564 71.1929 25.1308Z" fill="currentColor"/></symbol>
<symbol id='user' fill="none"  viewBox="0 0 227 227"><path d="M113.5 37.8334C123.534 37.8334 133.157 41.8194 140.252 48.9145C147.347 56.0096 151.333 65.6327 151.333 75.6667C151.333 85.7007 147.347 95.3238 140.252 102.419C133.157 109.514 123.534 113.5 113.5 113.5C103.466 113.5 93.8431 109.514 86.748 102.419C79.6528 95.3238 75.6668 85.7007 75.6668 75.6667C75.6668 65.6327 79.6528 56.0096 86.748 48.9145C93.8431 41.8194 103.466 37.8334 113.5 37.8334ZM113.5 132.417C155.306 132.417 189.167 149.347 189.167 170.25V189.167H37.8335V170.25C37.8335 149.347 71.6943 132.417 113.5 132.417Z" fill="currentColor"/></symbol>
<symbol id='users' fill="none"  viewBox="0 0 227 227"><path d="M151.333 160.792V179.708H18.9166V160.792C18.9166 160.792 18.9166 122.958 85.125 122.958C151.333 122.958 151.333 160.792 151.333 160.792ZM118.229 70.9375C118.229 64.3901 116.288 57.9898 112.65 52.5458C109.013 47.1019 103.842 42.8588 97.7934 40.3533C91.7444 37.8477 85.0882 37.1921 78.6667 38.4694C72.2451 39.7468 66.3465 42.8996 61.7168 47.5293C57.0871 52.159 53.9342 58.0576 52.6569 64.4792C51.3796 70.9008 52.0351 77.5569 54.5407 83.6059C57.0463 89.6549 61.2893 94.8251 66.7333 98.4626C72.1772 102.1 78.5776 104.042 85.125 104.042C93.9047 104.042 102.325 100.554 108.533 94.3457C114.741 88.1375 118.229 79.7173 118.229 70.9375ZM150.766 122.958C156.58 127.458 161.338 133.177 164.704 139.714C168.071 146.25 169.964 153.445 170.25 160.792V179.708H208.083V160.792C208.083 160.792 208.083 126.458 150.766 122.958ZM141.875 37.8334C135.366 37.8031 129 39.749 123.62 43.4138C129.366 51.4414 132.455 61.0657 132.455 70.9375C132.455 80.8093 129.366 90.4336 123.62 98.4613C129 102.126 135.366 104.072 141.875 104.042C150.655 104.042 159.075 100.554 165.283 94.3457C171.491 88.1375 174.979 79.7173 174.979 70.9375C174.979 62.1578 171.491 53.7376 165.283 47.5293C159.075 41.3211 150.655 37.8334 141.875 37.8334Z" fill="currentColor"/></symbol>
<symbol id='wallet' fill="none"  viewBox="0 0 227 227"><path d="M189.167 66.2083V47.2917C189.167 36.8591 180.683 28.375 170.25 28.375H47.292C31.6479 28.375 18.917 41.1059 18.917 56.75V170.25C18.917 191.068 35.8852 198.625 47.292 198.625H189.167C199.6 198.625 208.084 190.141 208.084 179.708V85.125C208.084 74.6925 199.6 66.2083 189.167 66.2083ZM170.25 151.333H151.334V113.5H170.25V151.333ZM47.292 66.2083C44.8567 66.0994 42.5572 65.0553 40.8724 63.2934C39.1876 61.5316 38.2473 59.1878 38.2473 56.75C38.2473 54.3122 39.1876 51.9684 40.8724 50.2066C42.5572 48.4447 44.8567 47.4006 47.292 47.2917H170.25V66.2083H47.292Z" fill="currentColor"/></symbol>
<symbol id='x' fill="none"  viewBox="0 0 227 227"><path d="M84.775 39.0156H28.375L78.1258 113.5L28.375 187.984H84.775L137.865 113.5L84.775 39.0156Z" fill="currentColor"/><path d="M119.988 81.7957L145.744 44.3407H188.041L140.835 113.5L187.975 182.669H145.517L122.476 149.044L118.333 153.83L142.216 187.984H198.625L148.401 113.5L198.625 39.0156H142.225L115.997 76.5747L119.988 81.7957Z" fill="currentColor"/></symbol>
</svg>