<?xml version="1.0" encoding="utf-8"?>
<svg xmlns="http://www.w3.org/2000/svg">
<symbol id='arrow-small' fill="none"  viewBox="0 0 227 196"><path d="M224.576 15.6097C225.376 14.2587 225.804 12.7198 225.818 11.1492C225.832 9.57866 225.43 8.03246 224.654 6.66769C223.878 5.30291 222.755 4.16818 221.399 3.37876C220.044 2.58935 218.504 2.17337 216.935 2.1731L11.2045 2.1731C9.63635 2.17337 8.09626 2.58935 6.74061 3.37876C5.38496 4.16818 4.26206 5.30291 3.486 6.66769C2.70994 8.03246 2.30835 9.57866 2.32205 11.1492C2.33574 12.7198 2.76424 14.2587 3.56398 15.6097L106.429 189.47C107.216 190.797 108.334 191.897 109.674 192.661C111.013 193.425 112.528 193.827 114.07 193.827C115.612 193.827 117.127 193.425 118.466 192.661C119.806 191.897 120.924 190.797 121.71 189.47L224.576 15.6097Z" fill="currentColor" stroke="currentColor" stroke-width="1.5" stroke-linecap="round" stroke-linejoin="round"/></symbol>
<symbol id='arrow' fill="none"  viewBox="0 0 227 227"><path d="M117.907 37.9038C120.407 35.4042 123.798 34 127.333 34C130.869 34 134.26 35.4042 136.76 37.9038L196.76 97.9038C199.26 100.404 200.664 103.795 200.664 107.33C200.664 110.866 199.26 114.257 196.76 116.757L136.76 176.757C134.245 179.186 130.877 180.53 127.381 180.499C123.885 180.469 120.541 179.067 118.069 176.595C115.597 174.123 114.195 170.778 114.164 167.283C114.134 163.787 115.478 160.419 117.907 157.904L154 120.664H27.3333C23.7971 120.664 20.4057 119.259 17.9052 116.759C15.4048 114.258 14 110.867 14 107.33C14 103.794 15.4048 100.403 17.9052 97.9024C20.4057 95.4019 23.7971 93.9972 27.3333 93.9972H154L117.907 56.7572C115.407 54.2568 114.003 50.866 114.003 47.3305C114.003 43.795 115.407 40.4042 117.907 37.9038Z" fill="currentColor"/></symbol>
<symbol id='bank' fill="none"  viewBox="0 0 227 227"><path d="M76.3408 14.873C100.194 5.32584 126.806 5.32585 150.659 14.873L221.325 43.1572C224.753 44.5291 227 47.8492 227 51.541V53.0048C227 57.1837 223.612 60.5714 219.433 60.5714H217.896C214.566 60.5714 211.885 63.6307 209.443 65.8951C207.827 67.3936 205.916 68.1429 203.709 68.1429H23.2911C21.0842 68.1429 19.1728 67.3936 17.557 65.8951C15.1154 63.6307 12.4338 60.5714 9.10373 60.5714H7.56667C3.38771 60.5714 0 57.1837 0 53.0048V51.541C0 47.8492 2.24727 44.5291 5.67478 43.1572L76.3408 14.873ZM30.2667 90.8476C30.2667 82.4897 37.0421 75.7143 45.4 75.7143C53.7579 75.7143 60.5333 82.4897 60.5333 90.8476V159.005C60.5333 163.184 63.921 166.571 68.1 166.571C72.279 166.571 75.6667 163.184 75.6667 159.005V90.8476C75.6667 82.4897 82.4421 75.7143 90.8 75.7143C99.1579 75.7143 105.933 82.4897 105.933 90.8476V159.005C105.933 163.184 109.321 166.571 113.5 166.571C117.679 166.571 121.067 163.184 121.067 159.005V90.8476C121.067 82.4897 127.842 75.7143 136.2 75.7143C144.558 75.7143 151.333 82.4897 151.333 90.8476V159.005C151.333 163.184 154.721 166.571 158.9 166.571C163.079 166.571 166.467 163.184 166.467 159.005V90.8476C166.467 82.4897 173.242 75.7143 181.6 75.7143C189.958 75.7143 196.733 82.4897 196.733 90.8476V159.596C196.733 163.448 199.856 166.571 203.709 166.571C205.916 166.571 207.827 167.321 209.443 168.819C211.059 170.318 211.867 172.092 211.867 174.143C211.867 178.324 208.477 181.714 204.295 181.714H22.7048C18.5232 181.714 15.1333 178.324 15.1333 174.143C15.1333 172.092 15.9412 170.318 17.557 168.819C19.1728 167.321 21.0842 166.571 23.2911 166.571C27.1436 166.571 30.2667 163.448 30.2667 159.596V90.8476ZM218.842 189.286C221.049 189.286 222.96 190.035 224.576 191.533C226.192 193.032 227 194.807 227 196.857C227 205.22 220.22 212 211.857 212H15.1429C6.77969 212 0 205.22 0 196.857C0 194.807 0.807899 193.032 2.4237 191.533C4.0395 190.035 5.95087 189.286 8.15781 189.286H218.842Z" fill="currentColor"/></symbol>
<symbol id='calendar' fill="none"  viewBox="0 0 227 227"><path d="M62.3234 38C55.8725 38 49.6857 40.5626 45.1242 45.1241C40.5626 49.6855 38 55.8722 38 62.3231V70.4308H178.535V62.3231C178.535 55.8722 175.973 49.6855 171.411 45.1241C166.85 40.5626 160.663 38 154.212 38H62.3234ZM178.535 81.2411H38V154.21C38 160.661 40.5626 166.848 45.1242 171.409C49.6857 175.971 55.8725 178.533 62.3234 178.533H101.122L104.873 164.048C105.87 160.194 107.871 156.675 110.673 153.848L156.979 107.148C159.745 104.352 163.166 102.291 166.93 101.151C170.694 100.012 174.683 99.8308 178.535 100.624V81.2411ZM86.6469 110.969C86.6469 113.12 85.7927 115.182 84.2722 116.702C82.7516 118.223 80.6894 119.077 78.5391 119.077C76.3887 119.077 74.3265 118.223 72.806 116.702C71.2855 115.182 70.4312 113.12 70.4312 110.969C70.4312 108.819 71.2855 106.757 72.806 105.236C74.3265 103.716 76.3887 102.862 78.5391 102.862C80.6894 102.862 82.7516 103.716 84.2722 105.236C85.7927 106.757 86.6469 108.819 86.6469 110.969ZM78.5391 146.103C76.3887 146.103 74.3265 145.248 72.806 143.728C71.2855 142.207 70.4312 140.145 70.4312 137.995C70.4312 135.845 71.2855 133.782 72.806 132.262C74.3265 130.741 76.3887 129.887 78.5391 129.887C80.6894 129.887 82.7516 130.741 84.2722 132.262C85.7927 133.782 86.6469 135.845 86.6469 137.995C86.6469 140.145 85.7927 142.207 84.2722 143.728C82.7516 145.248 80.6894 146.103 78.5391 146.103ZM116.376 137.995C116.376 140.145 115.521 142.207 114.001 143.728C112.48 145.248 110.418 146.103 108.268 146.103C106.117 146.103 104.055 145.248 102.535 143.728C101.014 142.207 100.16 140.145 100.16 137.995C100.16 135.845 101.014 133.782 102.535 132.262C104.055 130.741 106.117 129.887 108.268 129.887C110.418 129.887 112.48 130.741 114.001 132.262C115.521 133.782 116.376 135.845 116.376 137.995ZM108.268 119.077C106.117 119.077 104.055 118.223 102.535 116.702C101.014 115.182 100.16 113.12 100.16 110.969C100.16 108.819 101.014 106.757 102.535 105.236C104.055 103.716 106.117 102.862 108.268 102.862C110.418 102.862 112.48 103.716 114.001 105.236C115.521 106.757 116.376 108.819 116.376 110.969C116.376 113.12 115.521 115.182 114.001 116.702C112.48 118.223 110.418 119.077 108.268 119.077ZM146.104 110.969C146.104 113.12 145.25 115.182 143.729 116.702C142.209 118.223 140.147 119.077 137.996 119.077C135.846 119.077 133.784 118.223 132.263 116.702C130.743 115.182 129.889 113.12 129.889 110.969C129.889 108.819 130.743 106.757 132.263 105.236C133.784 103.716 135.846 102.862 137.996 102.862C140.147 102.862 142.209 103.716 143.729 105.236C145.25 106.757 146.104 108.819 146.104 110.969ZM138.186 181.058L184.724 134.882C187.604 132.026 189.256 128.159 189.328 124.103C189.399 120.048 187.885 116.125 185.108 113.169C183.677 111.645 181.954 110.425 180.041 109.581C178.128 108.738 176.064 108.288 173.974 108.26C171.883 108.231 169.809 108.623 167.873 109.414C165.938 110.205 164.181 111.377 162.709 112.861L116.403 159.561C114.613 161.367 113.332 163.615 112.695 166.075L108.424 182.571C108.189 183.481 108.195 184.437 108.442 185.344C108.689 186.251 109.168 187.078 109.832 187.744C110.496 188.409 111.323 188.89 112.229 189.138C113.136 189.386 114.092 189.394 115.003 189.16L131.326 184.955C133.917 184.285 136.284 182.94 138.186 181.058Z" fill="currentColor"/></symbol>
<symbol id='car' fill="none"  viewBox="0 0 227 227"><path d="M1 21.4688C1 16.2215 5.21684 12 10.4583 12H28.3898C37.0599 12 44.7448 17.05 48.3311 24.625H210.305C220.67 24.625 228.236 34.4883 225.517 44.5094L209.359 104.596C206.009 116.985 194.778 125.625 181.969 125.625H68.2724L70.4005 136.869C71.2675 141.327 75.1691 144.562 79.7012 144.562H193.319C198.561 144.562 202.778 148.784 202.778 154.031C202.778 159.279 198.561 163.5 193.319 163.5H79.7012C66.0655 163.5 54.3608 153.795 51.8385 140.42L31.5031 33.502C31.2273 32.0027 29.9267 30.9375 28.3898 30.9375H10.4583C5.21684 30.9375 1 26.716 1 21.4688ZM51.4444 195.062C51.4444 192.576 51.9337 190.113 52.8844 187.815C53.835 185.518 55.2284 183.43 56.985 181.672C58.7416 179.913 60.8269 178.518 63.122 177.567C65.4171 176.615 67.8769 176.125 70.3611 176.125C72.8453 176.125 75.3051 176.615 77.6002 177.567C79.8953 178.518 81.9806 179.913 83.7372 181.672C85.4938 183.43 86.8872 185.518 87.8378 187.815C88.7885 190.113 89.2778 192.576 89.2778 195.062C89.2778 197.549 88.7885 200.012 87.8378 202.31C86.8872 204.607 85.4938 206.695 83.7372 208.453C81.9806 210.212 79.8953 211.607 77.6002 212.558C75.3051 213.51 72.8453 214 70.3611 214C67.8769 214 65.4171 213.51 63.122 212.558C60.8269 211.607 58.7416 210.212 56.985 208.453C55.2284 206.695 53.835 204.607 52.8844 202.31C51.9337 200.012 51.4444 197.549 51.4444 195.062ZM183.861 176.125C188.878 176.125 193.69 178.12 197.237 181.672C200.785 185.223 202.778 190.04 202.778 195.062C202.778 200.085 200.785 204.902 197.237 208.453C193.69 212.005 188.878 214 183.861 214C178.844 214 174.033 212.005 170.485 208.453C166.937 204.902 164.944 200.085 164.944 195.062C164.944 190.04 166.937 185.223 170.485 181.672C174.033 178.12 178.844 176.125 183.861 176.125Z" fill="currentColor"/></symbol>
<symbol id='card' fill="none"  viewBox="0 0 227 227"><path fill-rule="evenodd" clip-rule="evenodd" d="M208.15 101.844C208.162 105.551 208.168 109.493 208.168 113.667C208.168 149.334 208.159 167.163 197.083 178.248C186.008 189.333 168.17 189.333 132.502 189.333H94.6684C59.0013 189.333 41.1725 189.324 30.0874 178.248C19.0023 167.172 19.0024 149.334 19.0024 113.667C18.9961 109.493 19.0021 105.551 19.021 101.844H208.15ZM53.9995 139C48.4768 139 43.9995 143.477 43.9995 149C43.9995 154.523 48.4768 159 53.9995 159H83.9995C89.5223 159 93.9995 154.523 93.9995 149C93.9995 143.477 89.5223 139 83.9995 139H53.9995Z" fill="currentColor"/><path d="M132.502 38C168.169 38 186.008 38 197.083 49.085C205.066 57.0583 207.299 68.541 207.923 87.6562H19.2485C19.8728 68.541 22.1046 57.0583 30.0874 49.085C41.1631 38 59.0015 38 94.6684 38H132.502Z" fill="currentColor"/></symbol>
<symbol id='email' fill="none"  viewBox="0 0 227 227"><path d="M189.167 37.8334H37.8332C27.429 37.8334 19.0111 46.3459 19.0111 56.75L18.9165 170.25C18.9165 180.654 27.429 189.167 37.8332 189.167H189.167C199.571 189.167 208.083 180.654 208.083 170.25V56.75C208.083 46.3459 199.571 37.8334 189.167 37.8334ZM189.167 75.6667L113.5 122.958L37.8332 75.6667V56.75L113.5 104.042L189.167 56.75V75.6667Z" fill="currentColor"/></symbol>
<symbol id='facebook' fill="none"  viewBox="0 0 227 227"><path d="M132.416 127.688H156.062L165.521 89.8542H132.416V70.9375C132.416 61.1954 132.416 52.0209 151.333 52.0209H165.521V20.2409C162.437 19.8341 150.794 18.9167 138.498 18.9167C112.819 18.9167 94.583 34.5891 94.583 63.3709V89.8542H66.208V127.688H94.583V208.083H132.416V127.688Z" fill="currentColor"/></symbol>
<symbol id='instagram' fill="none"  viewBox="0 0 227 227"><path d="M123.223 18.9167C133.864 18.9451 139.264 19.0018 143.927 19.1342L145.762 19.2004C147.881 19.2761 149.971 19.3707 152.497 19.4842C162.56 19.9571 169.427 21.5461 175.452 23.8823C181.694 26.2847 186.953 29.5384 192.212 34.7878C197.023 39.5144 200.745 45.2342 203.118 51.5479C205.454 57.5729 207.043 64.4396 207.516 74.5128C207.629 77.0287 207.724 79.119 207.799 81.2471L207.856 83.082C207.998 87.7355 208.055 93.1362 208.074 103.777L208.083 110.833V123.223C208.106 130.122 208.034 137.021 207.866 143.918L207.809 145.753C207.733 147.881 207.639 149.971 207.525 152.487C207.052 162.56 205.444 169.418 203.118 175.452C200.745 181.766 197.023 187.486 192.212 192.212C187.485 197.024 181.766 200.745 175.452 203.118C169.427 205.454 162.56 207.043 152.497 207.516L145.762 207.8L143.927 207.856C139.264 207.989 133.864 208.055 123.223 208.074L116.167 208.083H103.786C96.884 208.108 89.9819 208.035 83.0818 207.866L81.2469 207.809C79.0016 207.724 76.7568 207.626 74.5126 207.516C64.4489 207.043 57.5822 205.454 51.5478 203.118C45.2374 200.744 39.5209 197.023 34.7971 192.212C29.9822 187.487 26.2572 181.767 23.8821 175.452C21.5459 169.427 19.9569 162.56 19.484 152.487L19.2003 145.753L19.153 143.918C18.9786 137.021 18.8998 130.122 18.9165 123.223V103.777C18.8903 96.8779 18.9597 89.979 19.1246 83.082L19.1908 81.2471C19.2665 79.119 19.3611 77.0287 19.4746 74.5128C19.9475 64.4396 21.5365 57.5824 23.8727 51.5479C26.2533 45.2316 29.9849 39.5116 34.8065 34.7878C39.5277 29.9787 45.2408 26.257 51.5478 23.8823C57.5822 21.5461 64.4395 19.9571 74.5126 19.4842C77.0285 19.3707 79.1283 19.2761 81.2469 19.2004L83.0818 19.1437C89.9788 18.9756 96.8777 18.9031 103.777 18.9261L123.223 18.9167ZM113.5 66.2084C100.957 66.2084 88.9285 71.1909 80.0596 80.0598C71.1907 88.9287 66.2082 100.957 66.2082 113.5C66.2082 126.043 71.1907 138.071 80.0596 146.94C88.9285 155.809 100.957 160.792 113.5 160.792C126.042 160.792 138.071 155.809 146.94 146.94C155.809 138.071 160.792 126.043 160.792 113.5C160.792 100.957 155.809 88.9287 146.94 80.0598C138.071 71.1909 126.042 66.2084 113.5 66.2084ZM113.5 85.125C117.226 85.1244 120.916 85.8577 124.359 87.2831C127.802 88.7085 130.93 90.7981 133.565 93.4325C136.201 96.0669 138.291 99.1946 139.718 102.637C141.144 106.079 141.879 109.769 141.88 113.495C141.88 117.222 141.147 120.911 139.721 124.354C138.296 127.797 136.206 130.926 133.572 133.561C130.938 136.196 127.81 138.287 124.368 139.713C120.925 141.14 117.236 141.874 113.509 141.875C105.984 141.875 98.7665 138.886 93.4451 133.564C88.1238 128.243 85.1343 121.026 85.1343 113.5C85.1343 105.975 88.1238 98.7572 93.4451 93.4359C98.7665 88.1145 105.984 85.125 113.509 85.125M163.166 52.0209C160.03 52.0209 157.023 53.2665 154.805 55.4837C152.588 57.7009 151.343 60.7081 151.343 63.8438C151.343 66.9794 152.588 69.9866 154.805 72.2038C157.023 74.4211 160.03 75.6667 163.166 75.6667C166.301 75.6667 169.308 74.4211 171.526 72.2038C173.743 69.9866 174.988 66.9794 174.988 63.8438C174.988 60.7081 173.743 57.7009 171.526 55.4837C169.308 53.2665 166.301 52.0209 163.166 52.0209Z" fill="currentColor"/></symbol>
<symbol id='location' fill="none"  viewBox="0 0 227 227"><path d="M95.671 206.296C101.403 211.025 107.38 215.347 113.5 219.566C119.633 215.403 125.581 210.976 131.329 206.296C140.91 198.428 149.927 189.898 158.314 180.768C177.646 159.628 198.625 128.983 198.625 94.5834C198.625 83.4046 196.423 72.3353 192.145 62.0074C187.867 51.6796 181.597 42.2955 173.692 34.3909C165.788 26.4863 156.404 20.2161 146.076 15.9381C135.748 11.6602 124.679 9.45837 113.5 9.45837C102.321 9.45837 91.2519 11.6602 80.9241 15.9381C70.5962 20.2161 61.2121 26.4863 53.3075 34.3909C45.4029 42.2955 39.1327 51.6796 34.8548 62.0074C30.5768 72.3353 28.375 83.4046 28.375 94.5834C28.375 128.983 49.3536 159.619 68.6864 180.768C77.0724 189.901 86.0894 198.425 95.671 206.296ZM113.5 125.323C105.347 125.323 97.5286 122.084 91.7638 116.32C85.999 110.555 82.7604 102.736 82.7604 94.5834C82.7604 86.4307 85.999 78.612 91.7638 72.8472C97.5286 67.0824 105.347 63.8438 113.5 63.8438C121.653 63.8438 129.471 67.0824 135.236 72.8472C141.001 78.612 144.24 86.4307 144.24 94.5834C144.24 102.736 141.001 110.555 135.236 116.32C129.471 122.084 121.653 125.323 113.5 125.323Z" fill="currentColor"/></symbol>
<symbol id='logo' fill="none"  viewBox="0 0 71 36"><path d="M2.64205 29V7.18182H5.28409V26.6562H15.4261V29H2.64205ZM25.8239 29.3409C24.3466 29.3409 23.0504 28.9893 21.9354 28.2862C20.8274 27.5831 19.9609 26.5994 19.3359 25.3352C18.718 24.071 18.4091 22.5937 18.4091 20.9034C18.4091 19.1989 18.718 17.7109 19.3359 16.4396C19.9609 15.1683 20.8274 14.1811 21.9354 13.478C23.0504 12.7749 24.3466 12.4233 25.8239 12.4233C27.3011 12.4233 28.5938 12.7749 29.7017 13.478C30.8168 14.1811 31.6832 15.1683 32.3011 16.4396C32.9261 17.7109 33.2386 19.1989 33.2386 20.9034C33.2386 22.5937 32.9261 24.071 32.3011 25.3352C31.6832 26.5994 30.8168 27.5831 29.7017 28.2862C28.5938 28.9893 27.3011 29.3409 25.8239 29.3409ZM25.8239 27.0824C26.946 27.0824 27.8693 26.7947 28.5938 26.2195C29.3182 25.6442 29.8544 24.8878 30.2024 23.9503C30.5504 23.0128 30.7244 21.9972 30.7244 20.9034C30.7244 19.8097 30.5504 18.7905 30.2024 17.8459C29.8544 16.9013 29.3182 16.1378 28.5938 15.5554C27.8693 14.973 26.946 14.6818 25.8239 14.6818C24.7017 14.6818 23.7784 14.973 23.054 15.5554C22.3295 16.1378 21.7933 16.9013 21.4453 17.8459C21.0973 18.7905 20.9233 19.8097 20.9233 20.9034C20.9233 21.9972 21.0973 23.0128 21.4453 23.9503C21.7933 24.8878 22.3295 25.6442 23.054 26.2195C23.7784 26.7947 24.7017 27.0824 25.8239 27.0824ZM43.6816 35.4773C42.4672 35.4773 41.4231 35.321 40.5495 35.0085C39.676 34.7031 38.948 34.2983 38.3656 33.794C37.7903 33.2969 37.3322 32.7642 36.9913 32.196L38.9941 30.7898C39.2214 31.0881 39.5091 31.429 39.8571 31.8125C40.2051 32.2031 40.6809 32.5405 41.2846 32.8246C41.8954 33.1158 42.6944 33.2614 43.6816 33.2614C45.0027 33.2614 46.0929 32.9418 46.9522 32.3026C47.8116 31.6634 48.2413 30.6619 48.2413 29.2983V25.9744H48.0282C47.8436 26.2727 47.5808 26.642 47.2399 27.0824C46.9061 27.5156 46.4231 27.9027 45.791 28.2436C45.166 28.5774 44.3208 28.7443 43.2555 28.7443C41.9345 28.7443 40.7484 28.4318 39.6973 27.8068C38.6532 27.1818 37.8258 26.2727 37.215 25.0795C36.6113 23.8864 36.3095 22.4375 36.3095 20.733C36.3095 19.0568 36.6042 17.5973 37.1937 16.3544C37.7832 15.1044 38.6035 14.1385 39.6547 13.4567C40.7058 12.7678 41.9203 12.4233 43.2981 12.4233C44.3635 12.4233 45.2086 12.6009 45.8336 12.956C46.4657 13.304 46.9487 13.7017 47.2825 14.1491C47.6234 14.5895 47.8862 14.9517 48.0708 15.2358H48.3265V12.6364H50.7555V29.4688C50.7555 30.875 50.4359 32.0185 49.7967 32.8991C49.1646 33.7869 48.3123 34.4368 47.2399 34.8487C46.1745 35.2678 44.9885 35.4773 43.6816 35.4773ZM43.5964 26.4858C44.6049 26.4858 45.4572 26.255 46.1532 25.7933C46.8493 25.3317 47.3784 24.6676 47.7406 23.8011C48.1028 22.9347 48.2839 21.8977 48.2839 20.6903C48.2839 19.5114 48.1064 18.4709 47.7512 17.5689C47.3961 16.6669 46.8706 15.9602 46.1745 15.4489C45.4785 14.9375 44.6191 14.6818 43.5964 14.6818C42.5311 14.6818 41.6433 14.9517 40.9331 15.4915C40.2299 16.0312 39.7008 16.7557 39.3457 17.6648C38.9977 18.5739 38.8237 19.5824 38.8237 20.6903C38.8237 21.8267 39.0012 22.8317 39.3564 23.7053C39.7186 24.5717 40.2512 25.2536 40.9544 25.7507C41.6646 26.2408 42.5453 26.4858 43.5964 26.4858ZM62.0055 29.3409C60.5282 29.3409 59.2321 28.9893 58.117 28.2862C57.0091 27.5831 56.1426 26.5994 55.5176 25.3352C54.8997 24.071 54.5907 22.5937 54.5907 20.9034C54.5907 19.1989 54.8997 17.7109 55.5176 16.4396C56.1426 15.1683 57.0091 14.1811 58.117 13.478C59.2321 12.7749 60.5282 12.4233 62.0055 12.4233C63.4828 12.4233 64.7754 12.7749 65.8833 13.478C66.9984 14.1811 67.8649 15.1683 68.4828 16.4396C69.1078 17.7109 69.4203 19.1989 69.4203 20.9034C69.4203 22.5937 69.1078 24.071 68.4828 25.3352C67.8649 26.5994 66.9984 27.5831 65.8833 28.2862C64.7754 28.9893 63.4828 29.3409 62.0055 29.3409ZM62.0055 27.0824C63.1277 27.0824 64.051 26.7947 64.7754 26.2195C65.4998 25.6442 66.036 24.8878 66.3841 23.9503C66.7321 23.0128 66.9061 21.9972 66.9061 20.9034C66.9061 19.8097 66.7321 18.7905 66.3841 17.8459C66.036 16.9013 65.4998 16.1378 64.7754 15.5554C64.051 14.973 63.1277 14.6818 62.0055 14.6818C60.8833 14.6818 59.96 14.973 59.2356 15.5554C58.5112 16.1378 57.975 16.9013 57.627 17.8459C57.2789 18.7905 57.1049 19.8097 57.1049 20.9034C57.1049 21.9972 57.2789 23.0128 57.627 23.9503C57.975 24.8878 58.5112 25.6442 59.2356 26.2195C59.96 26.7947 60.8833 27.0824 62.0055 27.0824Z" fill="white"/></symbol>
<symbol id='padlock' viewBox="0 0 304 380" fill="none" ><path d="M247 133V95C247 41.8 205.2 0 152 0C98.8 0 57 41.8 57 95V133C24.7 133 0 157.7 0 190V323C0 355.3 24.7 380 57 380H247C279.3 380 304 355.3 304 323V190C304 157.7 279.3 133 247 133ZM95 95C95 62.7 119.7 38 152 38C184.3 38 209 62.7 209 95V133H95V95ZM172.9 256.5L171 258.4V285C171 296.4 163.4 304 152 304C140.6 304 133 296.4 133 285V258.4C121.6 247 119.7 229.9 131.1 218.5C142.5 207.1 159.6 205.2 171 216.6C182.4 226.1 184.3 245.1 172.9 256.5Z" fill="currentColor"/></symbol>
<symbol id='paypal' fill="none"  viewBox="0 0 227 227"><path d="M93.9216 122.864C94.8674 122.864 116.811 123.81 129.863 120.594H129.958C144.997 116.905 165.9 106.312 171.291 71.6942C171.291 71.6942 183.303 28.375 123.715 28.375H72.5458C67.9112 28.375 63.9387 31.78 63.182 36.32L41.4279 174.033C40.9549 176.871 43.2249 179.519 46.0624 179.519H78.5045L86.4495 129.201C87.017 125.607 90.1383 122.864 93.9216 122.864Z" fill="currentColor"/><path d="M179.614 78.4095C171.953 113.689 147.834 132.322 109.433 132.322H95.5292L85.7871 193.99C85.4088 196.45 87.3004 198.625 89.7596 198.625H107.73C110.946 198.625 113.784 196.26 114.257 193.045C115.013 189.261 119.175 161.643 120.026 156.914C120.499 153.698 123.337 151.333 126.553 151.333H130.714C157.387 151.333 178.29 140.456 184.438 109.149C186.897 96.475 185.573 86.0708 179.614 78.4095Z" fill="currentColor"/></symbol>
<symbol id='phone' fill="none"  viewBox="0 0 227 227"><path d="M85.1248 28.375C86.8205 28.3745 88.4852 28.8299 89.9445 29.6935C91.4038 30.5572 92.6042 31.7972 93.4198 33.2839L93.9022 34.3243L112.819 81.616C113.581 83.5186 113.704 85.6172 113.17 87.596C112.636 89.5747 111.474 91.3265 109.858 92.5876L108.913 93.2308L93.0793 102.727L93.6752 103.701C101.211 115.666 111.334 125.789 123.299 133.325L124.263 133.911L133.769 118.097C134.822 116.338 136.419 114.97 138.317 114.197C140.216 113.424 142.314 113.289 144.296 113.812L145.384 114.181L192.676 133.098C194.25 133.726 195.627 134.766 196.662 136.109C197.697 137.451 198.352 139.048 198.559 140.731L198.625 141.875V179.708C198.625 195.381 185.922 208.083 169.682 208.064C88.5393 203.137 23.8538 138.451 18.9165 56.75C18.9161 49.5124 21.6814 42.5482 26.6466 37.2823C31.6119 32.0164 38.4017 28.8469 45.6268 28.4223L47.2915 28.375H85.1248Z" fill="currentColor"/></symbol>
<symbol id='shield' fill="none"  viewBox="0 0 227 227"><path d="M113.5 208.083C91.5879 202.566 73.4972 189.993 59.2278 170.363C44.9583 150.734 37.8267 128.942 37.833 104.987V47.2916L113.5 18.9166L189.166 47.2916V104.987C189.166 128.949 182.035 150.744 167.772 170.373C153.508 190.002 135.418 202.572 113.5 208.083Z" fill="currentColor"/></symbol>
<symbol id='user' fill="none"  viewBox="0 0 227 227"><path d="M113.5 37.8334C123.534 37.8334 133.157 41.8194 140.252 48.9145C147.347 56.0096 151.333 65.6327 151.333 75.6667C151.333 85.7007 147.347 95.3238 140.252 102.419C133.157 109.514 123.534 113.5 113.5 113.5C103.466 113.5 93.8431 109.514 86.748 102.419C79.6528 95.3238 75.6668 85.7007 75.6668 75.6667C75.6668 65.6327 79.6528 56.0096 86.748 48.9145C93.8431 41.8194 103.466 37.8334 113.5 37.8334ZM113.5 132.417C155.306 132.417 189.167 149.347 189.167 170.25V189.167H37.8335V170.25C37.8335 149.347 71.6943 132.417 113.5 132.417Z" fill="currentColor"/></symbol>
<symbol id='wallet' fill="none"  viewBox="0 0 227 227"><path d="M189.167 66.2083V47.2917C189.167 36.8591 180.683 28.375 170.25 28.375H47.292C31.6479 28.375 18.917 41.1059 18.917 56.75V170.25C18.917 191.068 35.8852 198.625 47.292 198.625H189.167C199.6 198.625 208.084 190.141 208.084 179.708V85.125C208.084 74.6925 199.6 66.2083 189.167 66.2083ZM170.25 151.333H151.334V113.5H170.25V151.333ZM47.292 66.2083C44.8567 66.0994 42.5572 65.0553 40.8724 63.2934C39.1876 61.5316 38.2473 59.1878 38.2473 56.75C38.2473 54.3122 39.1876 51.9684 40.8724 50.2066C42.5572 48.4447 44.8567 47.4006 47.292 47.2917H170.25V66.2083H47.292Z" fill="currentColor"/></symbol>
<symbol id='x' fill="none"  viewBox="0 0 227 227"><path d="M84.775 39.0156H28.375L78.1258 113.5L28.375 187.984H84.775L137.865 113.5L84.775 39.0156Z" fill="currentColor"/><path d="M119.988 81.7957L145.744 44.3407H188.041L140.835 113.5L187.975 182.669H145.517L122.476 149.044L118.333 153.83L142.216 187.984H198.625L148.401 113.5L198.625 39.0156H142.225L115.997 76.5747L119.988 81.7957Z" fill="currentColor"/></symbol>
</svg>